{
	"asset":{
		"generator":"Khronos glTF Blender I/O v3.5.30",
		"version":"2.0"
	},
	"extensionsUsed":[
		"KHR_materials_specular",
		"KHR_materials_ior"
	],
	"scene":0,
	"scenes":[
		{
			"name":"Scene",
			"nodes":[
				9,
				10,
				13
			]
		}
	],
	"nodes":[
		{
			"mesh":0,
			"name":"group_1",
			"rotation":[
				0,
				0.6621710658073425,
				0,
				0.749352753162384
			],
			"translation":[
				45.404327392578125,
				0,
				1.4561175107955933
			]
		},
		{
			"name":"group_1.001",
			"rotation":[
				0,
				0.6621710658073425,
				0,
				0.749352753162384
			],
			"translation":[
				45.404327392578125,
				0,
				0.8037101030349731
			]
		},
		{
			"name":"group_1.002",
			"rotation":[
				0,
				0.6621710658073425,
				0,
				0.749352753162384
			],
			"translation":[
				45.404327392578125,
				0,
				0.8037101030349731
			]
		},
		{
			"children":[
				0,
				1,
				2
			],
			"mesh":1,
			"name":"group_0",
			"rotation":[
				0,
				-1,
				0,
				4.371139183945161e-08
			],
			"translation":[
				27.763059616088867,
				0,
				-2.193350076675415
			]
		},
		{
			"mesh":2,
			"name":"group_0.001",
			"rotation":[
				0,
				-1,
				0,
				4.371139183945161e-08
			],
			"translation":[
				27.763059616088867,
				0,
				-2.193350076675415
			]
		},
		{
			"mesh":3,
			"name":"group_0.002",
			"rotation":[
				0,
				-1,
				0,
				4.371139183945161e-08
			],
			"translation":[
				27.763059616088867,
				0,
				-2.193350076675415
			]
		},
		{
			"mesh":4,
			"name":"group_0.003",
			"rotation":[
				0,
				-1,
				0,
				4.371139183945161e-08
			],
			"translation":[
				27.763059616088867,
				0,
				-2.193350076675415
			]
		},
		{
			"mesh":5,
			"name":"group_0.004",
			"rotation":[
				0,
				-1,
				0,
				4.371139183945161e-08
			],
			"translation":[
				27.763059616088867,
				0,
				-2.193350076675415
			]
		},
		{
			"mesh":6,
			"name":"group_0.005",
			"rotation":[
				0,
				-1,
				0,
				4.371139183945161e-08
			],
			"translation":[
				27.763059616088867,
				0,
				-2.193350076675415
			]
		},
		{
			"children":[
				3,
				4,
				5,
				6,
				7,
				8
			],
			"mesh":7,
			"name":"SketchUp",
			"scale":[
				0.02539999783039093,
				0.02539999783039093,
				0.02539999783039093
			]
		},
		{
			"name":"SketchUp.001",
			"scale":[
				0.02539999783039093,
				0.02539999783039093,
				0.02539999783039093
			]
		},
		{
			"mesh":8,
			"name":"group_1.003",
			"rotation":[
				0.6621711254119873,
				0,
				-0.7493526935577393,
				3.682745200544416e-16
			],
			"scale":[
				-0.9999999403953552,
				-1,
				-0.9999999403953552
			],
			"translation":[
				49.28082275390625,
				0.4227946102619171,
				-39.19349670410156
			]
		},
		{
			"children":[
				11
			],
			"name":"group_0.006",
			"rotation":[
				0,
				-1,
				0,
				4.371139183945161e-08
			],
			"translation":[
				27.7630615234375,
				0,
				-2.1933517456054688
			]
		},
		{
			"children":[
				12
			],
			"name":"SketchUp.002",
			"scale":[
				0.02539999783039093,
				0.02539999783039093,
				0.02539999783039093
			],
			"translation":[
				0.10302256047725677,
				-0.009536171332001686,
				-0.7605494856834412
			]
		}
	],
	"materials":[
		{
			"doubleSided":true,
			"extensions":{
				"KHR_materials_specular":{
					"specularColorFactor":[
						0,
						0,
						0
					]
				},
				"KHR_materials_ior":{
					"ior":1.4500000476837158
				}
			},
			"name":"Grey_v4",
			"pbrMetallicRoughness":{
				"baseColorFactor":[
					0.33725491166114807,
					0.33725491166114807,
					0.33725491166114807,
					1
				],
				"metallicFactor":0,
				"roughnessFactor":0.5
			}
		},
		{
			"doubleSided":true,
			"extensions":{
				"KHR_materials_specular":{
					"specularColorFactor":[
						0,
						0,
						0
					]
				},
				"KHR_materials_ior":{
					"ior":1.4500000476837158
				}
			},
			"name":"Gallery_White",
			"pbrMetallicRoughness":{
				"baseColorFactor":[
					0.7764706015586853,
					0.7764706015586853,
					0.7764706015586853,
					1
				],
				"metallicFactor":0,
				"roughnessFactor":0.5
			}
		},
		{
			"doubleSided":true,
			"extensions":{
				"KHR_materials_specular":{
					"specularColorFactor":[
						0,
						0,
						0
					]
				},
				"KHR_materials_ior":{
					"ior":1.4500000476837158
				}
			},
			"name":"material",
			"pbrMetallicRoughness":{
				"metallicFactor":0,
				"roughnessFactor":0.5
			}
		},
		{
			"doubleSided":true,
			"extensions":{
				"KHR_materials_specular":{
					"specularColorFactor":[
						0,
						0,
						0
					]
				},
				"KHR_materials_ior":{
					"ior":1.4500000476837158
				}
			},
			"name":"Pure_White",
			"pbrMetallicRoughness":{
				"metallicFactor":0,
				"roughnessFactor":0.5
			}
		},
		{
			"doubleSided":true,
			"extensions":{
				"KHR_materials_specular":{
					"specularColorFactor":[
						0,
						0,
						0
					]
				},
				"KHR_materials_ior":{
					"ior":1.4500000476837158
				}
			},
			"name":"Grey_v4.001",
			"pbrMetallicRoughness":{
				"baseColorFactor":[
					0.33725491166114807,
					0.33725491166114807,
					0.33725491166114807,
					1
				],
				"metallicFactor":0,
				"roughnessFactor":0.5
			}
		}
	],
	"meshes":[
		{
			"name":"ID4",
			"primitives":[
				{
					"attributes":{
						"POSITION":0,
						"NORMAL":1
					},
					"indices":2,
					"material":0
				}
			]
		},
		{
			"name":"ID24",
			"primitives":[
				{
					"attributes":{
						"POSITION":3,
						"NORMAL":4
					},
					"indices":5,
					"material":1
				},
				{
					"attributes":{
						"POSITION":6,
						"NORMAL":7
					},
					"indices":8,
					"material":2
				}
			]
		},
		{
			"name":"ID34",
			"primitives":[
				{
					"attributes":{
						"POSITION":9,
						"NORMAL":10
					},
					"indices":11,
					"material":1
				}
			]
		},
		{
			"name":"ID40",
			"primitives":[
				{
					"attributes":{
						"POSITION":12,
						"NORMAL":13
					},
					"indices":14,
					"material":3
				},
				{
					"attributes":{
						"POSITION":15,
						"NORMAL":16
					},
					"indices":17,
					"material":2
				}
			]
		},
		{
			"name":"ID48",
			"primitives":[
				{
					"attributes":{
						"POSITION":18,
						"NORMAL":19
					},
					"indices":20,
					"material":1
				}
			]
		},
		{
			"name":"ID54",
			"primitives":[
				{
					"attributes":{
						"POSITION":21,
						"NORMAL":22
					},
					"indices":23,
					"material":3
				},
				{
					"attributes":{
						"POSITION":24,
						"NORMAL":25
					},
					"indices":26,
					"material":2
				}
			]
		},
		{
			"name":"ID60",
			"primitives":[
				{
					"attributes":{
						"POSITION":27,
						"NORMAL":28
					},
					"indices":29,
					"material":3
				}
			]
		},
		{
			"name":"ID66",
			"primitives":[
				{
					"attributes":{
						"POSITION":30,
						"NORMAL":31
					},
					"indices":32,
					"material":3
				}
			]
		},
		{
			"name":"ID4.001",
			"primitives":[
				{
					"attributes":{
						"POSITION":33,
						"NORMAL":34
					},
					"indices":2,
					"material":4
				}
			]
		}
	],
	"accessors":[
		{
			"bufferView":0,
			"componentType":5126,
			"count":590,
			"max":[
				4.46183443069458,
				47,
				-3.0537233352661133
			],
			"min":[
				7.105427357601002e-15,
				43,
				-10.592974662780762
			],
			"type":"VEC3"
		},
		{
			"bufferView":1,
			"componentType":5126,
			"count":590,
			"type":"VEC3"
		},
		{
			"bufferView":2,
			"componentType":5123,
			"count":1608,
			"type":"SCALAR"
		},
		{
			"bufferView":3,
			"componentType":5126,
			"count":48,
			"max":[
				35,
				84,
				-4
			],
			"min":[
				11,
				60,
				-6
			],
			"type":"VEC3"
		},
		{
			"bufferView":4,
			"componentType":5126,
			"count":48,
			"type":"VEC3"
		},
		{
			"bufferView":5,
			"componentType":5123,
			"count":144,
			"type":"SCALAR"
		},
		{
			"bufferView":6,
			"componentType":5126,
			"count":48,
			"max":[
				35,
				84,
				-4
			],
			"min":[
				11,
				60,
				-6
			],
			"type":"VEC3"
		},
		{
			"bufferView":7,
			"componentType":5126,
			"count":48,
			"type":"VEC3"
		},
		{
			"bufferView":8,
			"componentType":5123,
			"count":144,
			"type":"SCALAR"
		},
		{
			"bufferView":9,
			"componentType":5126,
			"count":58,
			"max":[
				46,
				132,
				-4
			],
			"min":[
				0,
				0,
				-4
			],
			"type":"VEC3"
		},
		{
			"bufferView":10,
			"componentType":5126,
			"count":58,
			"type":"VEC3"
		},
		{
			"bufferView":11,
			"componentType":5123,
			"count":174,
			"type":"SCALAR"
		},
		{
			"bufferView":12,
			"componentType":5126,
			"count":48,
			"max":[
				36,
				85,
				-4
			],
			"min":[
				10,
				58.999996185302734,
				-4
			],
			"type":"VEC3"
		},
		{
			"bufferView":13,
			"componentType":5126,
			"count":48,
			"type":"VEC3"
		},
		{
			"bufferView":14,
			"componentType":5123,
			"count":144,
			"type":"SCALAR"
		},
		{
			"bufferView":15,
			"componentType":5126,
			"count":48,
			"max":[
				36,
				85,
				-4
			],
			"min":[
				10,
				58.999996185302734,
				-4
			],
			"type":"VEC3"
		},
		{
			"bufferView":16,
			"componentType":5126,
			"count":48,
			"type":"VEC3"
		},
		{
			"bufferView":17,
			"componentType":5123,
			"count":144,
			"type":"SCALAR"
		},
		{
			"bufferView":18,
			"componentType":5126,
			"count":8,
			"max":[
				62.999996185302734,
				132,
				-6
			],
			"min":[
				46,
				2.842170943040401e-14,
				-6
			],
			"type":"VEC3"
		},
		{
			"bufferView":19,
			"componentType":5126,
			"count":8,
			"type":"VEC3"
		},
		{
			"bufferView":20,
			"componentType":5123,
			"count":12,
			"type":"SCALAR"
		},
		{
			"bufferView":21,
			"componentType":5126,
			"count":4,
			"max":[
				46,
				132,
				-4
			],
			"min":[
				46,
				2.842170943040401e-14,
				-6
			],
			"type":"VEC3"
		},
		{
			"bufferView":22,
			"componentType":5126,
			"count":4,
			"type":"VEC3"
		},
		{
			"bufferView":23,
			"componentType":5123,
			"count":6,
			"type":"SCALAR"
		},
		{
			"bufferView":24,
			"componentType":5126,
			"count":4,
			"max":[
				46,
				132,
				-4
			],
			"min":[
				46,
				2.842170943040401e-14,
				-6
			],
			"type":"VEC3"
		},
		{
			"bufferView":25,
			"componentType":5126,
			"count":4,
			"type":"VEC3"
		},
		{
			"bufferView":26,
			"componentType":5123,
			"count":6,
			"type":"SCALAR"
		},
		{
			"bufferView":27,
			"componentType":5126,
			"count":16,
			"max":[
				62.999996185302734,
				132,
				-4
			],
			"min":[
				46,
				2.842170943040401e-14,
				-6
			],
			"type":"VEC3"
		},
		{
			"bufferView":28,
			"componentType":5126,
			"count":16,
			"type":"VEC3"
		},
		{
			"bufferView":29,
			"componentType":5123,
			"count":24,
			"type":"SCALAR"
		},
		{
			"bufferView":30,
			"componentType":5126,
			"count":118,
			"max":[
				30.763059616088867,
				134,
				1.8066500425338745
			],
			"min":[
				-37.2369384765625,
				0,
				-3.1811001300811768
			],
			"type":"VEC3"
		},
		{
			"bufferView":31,
			"componentType":5126,
			"count":118,
			"type":"VEC3"
		},
		{
			"bufferView":32,
			"componentType":5123,
			"count":216,
			"type":"SCALAR"
		},
		{
			"bufferView":33,
			"componentType":5126,
			"count":590,
			"max":[
				4.46183443069458,
				47,
				-3.0537233352661133
			],
			"min":[
				7.105427357601002e-15,
				43,
				-10.592974662780762
			],
			"type":"VEC3"
		},
		{
			"bufferView":34,
			"componentType":5126,
			"count":590,
			"type":"VEC3"
		}
	],
	"bufferViews":[
		{
			"buffer":0,
			"byteLength":7080,
			"byteOffset":0,
			"target":34962
		},
		{
			"buffer":0,
			"byteLength":7080,
			"byteOffset":7080,
			"target":34962
		},
		{
			"buffer":0,
			"byteLength":3216,
			"byteOffset":14160,
			"target":34963
		},
		{
			"buffer":0,
			"byteLength":576,
			"byteOffset":17376,
			"target":34962
		},
		{
			"buffer":0,
			"byteLength":576,
			"byteOffset":17952,
			"target":34962
		},
		{
			"buffer":0,
			"byteLength":288,
			"byteOffset":18528,
			"target":34963
		},
		{
			"buffer":0,
			"byteLength":576,
			"byteOffset":18816,
			"target":34962
		},
		{
			"buffer":0,
			"byteLength":576,
			"byteOffset":19392,
			"target":34962
		},
		{
			"buffer":0,
			"byteLength":288,
			"byteOffset":19968,
			"target":34963
		},
		{
			"buffer":0,
			"byteLength":696,
			"byteOffset":20256,
			"target":34962
		},
		{
			"buffer":0,
			"byteLength":696,
			"byteOffset":20952,
			"target":34962
		},
		{
			"buffer":0,
			"byteLength":348,
			"byteOffset":21648,
			"target":34963
		},
		{
			"buffer":0,
			"byteLength":576,
			"byteOffset":21996,
			"target":34962
		},
		{
			"buffer":0,
			"byteLength":576,
			"byteOffset":22572,
			"target":34962
		},
		{
			"buffer":0,
			"byteLength":288,
			"byteOffset":23148,
			"target":34963
		},
		{
			"buffer":0,
			"byteLength":576,
			"byteOffset":23436,
			"target":34962
		},
		{
			"buffer":0,
			"byteLength":576,
			"byteOffset":24012,
			"target":34962
		},
		{
			"buffer":0,
			"byteLength":288,
			"byteOffset":24588,
			"target":34963
		},
		{
			"buffer":0,
			"byteLength":96,
			"byteOffset":24876,
			"target":34962
		},
		{
			"buffer":0,
			"byteLength":96,
			"byteOffset":24972,
			"target":34962
		},
		{
			"buffer":0,
			"byteLength":24,
			"byteOffset":25068,
			"target":34963
		},
		{
			"buffer":0,
			"byteLength":48,
			"byteOffset":25092,
			"target":34962
		},
		{
			"buffer":0,
			"byteLength":48,
			"byteOffset":25140,
			"target":34962
		},
		{
			"buffer":0,
			"byteLength":12,
			"byteOffset":25188,
			"target":34963
		},
		{
			"buffer":0,
			"byteLength":48,
			"byteOffset":25200,
			"target":34962
		},
		{
			"buffer":0,
			"byteLength":48,
			"byteOffset":25248,
			"target":34962
		},
		{
			"buffer":0,
			"byteLength":12,
			"byteOffset":25296,
			"target":34963
		},
		{
			"buffer":0,
			"byteLength":192,
			"byteOffset":25308,
			"target":34962
		},
		{
			"buffer":0,
			"byteLength":192,
			"byteOffset":25500,
			"target":34962
		},
		{
			"buffer":0,
			"byteLength":48,
			"byteOffset":25692,
			"target":34963
		},
		{
			"buffer":0,
			"byteLength":1416,
			"byteOffset":25740,
			"target":34962
		},
		{
			"buffer":0,
			"byteLength":1416,
			"byteOffset":27156,
			"target":34962
		},
		{
			"buffer":0,
			"byteLength":432,
			"byteOffset":28572,
			"target":34963
		},
		{
			"buffer":0,
			"byteLength":7080,
			"byteOffset":29004,
			"target":34962
		},
		{
			"buffer":0,
			"byteLength":7080,
			"byteOffset":36084,
			"target":34962
		}
	],
	"buffers":[
		{
			"byteLength":43164,
			"uri":"data:application/octet-stream;base64,"
		}
	]
}
