# Blender 3.5.0
# www.blender.org
mtllib ground1.mtl
o SketchUp
v 0.517525 4.724400 0.000000
v 0.441325 4.724400 0.000000
o instance_0
v -29.441416 0.000001 7.888804
v -29.441416 -0.000001 -7.888804
v -30.479998 0.000000 0.000000
v -26.396452 0.000001 15.239999
v -26.396452 -0.000001 -15.239999
v -21.552612 0.000002 21.552612
v -21.552612 -0.000002 -21.552612
v -15.239999 0.000002 26.396452
v -15.239999 -0.000002 -26.396452
v -7.888804 0.000002 29.441416
v -7.888804 -0.000002 -29.441416
v 0.000000 0.000002 30.479998
v 0.000000 -0.000002 -30.479998
v 7.888804 0.000002 29.441416
v 7.888804 -0.000002 -29.441416
v 15.239999 0.000002 26.396452
v 15.239999 -0.000002 -26.396452
v 21.552612 0.000002 21.552612
v 21.552612 -0.000002 -21.552612
v 26.396452 0.000001 15.239999
v 26.396452 -0.000001 -15.239999
v 29.441416 0.000001 7.888804
v 29.441416 -0.000001 -7.888804
v 30.479998 0.000000 0.000000
v 31.207903 3.632201 8.362132
v 26.396452 0.000001 15.239999
v 27.980238 3.632201 16.154398
v 29.441416 0.000001 7.888804
v 32.308796 3.632200 -0.000000
v 29.441416 0.000001 7.888804
v 31.207903 3.632201 8.362132
v 30.479998 0.000000 0.000000
v 31.207901 3.632199 -8.362132
v 30.479998 0.000000 0.000000
v 32.308796 3.632200 -0.000000
v 29.441416 -0.000001 -7.888804
v 31.207901 3.632199 -8.362132
v 26.396452 -0.000001 -15.239999
v 29.441416 -0.000001 -7.888804
v 27.980238 3.632199 -16.154398
v 27.980238 3.632199 -16.154398
v 21.552612 -0.000002 -21.552612
v 26.396452 -0.000001 -15.239999
v 22.845770 3.632198 -22.845770
v 22.845770 3.632198 -22.845770
v 15.239999 -0.000002 -26.396452
v 21.552612 -0.000002 -21.552612
v 16.154398 3.632198 -27.980238
v 16.154398 3.632198 -27.980238
v 7.888804 -0.000002 -29.441416
v 15.239999 -0.000002 -26.396452
v 8.362132 3.632198 -31.207901
v 8.362132 3.632198 -31.207901
v 0.000000 -0.000002 -30.479998
v 7.888804 -0.000002 -29.441416
v 8.362132 3.632202 31.207901
v 7.888804 0.000002 29.441416
v 0.000000 0.000002 30.479998
v 8.362132 3.632202 31.207901
v 15.239999 0.000002 26.396452
v 7.888804 0.000002 29.441416
v 16.154398 3.632202 27.980238
v 16.154398 3.632202 27.980238
v 21.552612 0.000002 21.552612
v 15.239999 0.000002 26.396452
v 22.845770 3.632202 22.845770
v 27.980238 3.632201 16.154398
v 21.552612 0.000002 21.552612
v 22.845770 3.632202 22.845770
v 26.396452 0.000001 15.239999
vn -0.0000 1.0000 -0.0000
vn -0.8266 0.4466 -0.3424
vn -0.8871 0.4466 -0.1168
vn -0.8871 0.4466 0.1168
vn -0.8266 0.4466 0.3424
vn -0.7098 0.4466 0.5447
vn -0.5447 0.4466 0.7098
vn -0.3424 0.4466 0.8266
vn -0.1168 0.4466 0.8871
vn -0.1168 0.4466 -0.8871
vn -0.3424 0.4466 -0.8266
vn -0.5447 0.4466 -0.7098
vn -0.7098 0.4466 -0.5447
vt 0.289629 0.032145
vt 0.094246 0.182069
vt 0.182069 0.094246
vt 0.409598 0.000000
vt 0.032145 0.289629
vt 0.533798 0.000000
vt 0.000000 0.409598
vt 0.653767 0.032145
vt 0.000000 0.533798
vt 0.761328 0.094246
vt 0.032145 0.653767
vt 0.849151 0.182069
vt 0.094246 0.761328
vt 0.911251 0.289629
vt 0.182069 0.849151
vt 0.943396 0.409598
vt 0.289629 0.911251
vt 0.943396 0.533798
vt 0.409598 0.943396
vt 0.911251 0.653767
vt 0.533798 0.943396
vt 0.849151 0.761328
vt 0.653767 0.911251
vt 0.761328 0.849151
vt 0.971698 0.131653
vt 0.943396 0.003726
vt 0.971698 0.000000
vt 0.943396 0.127926
vt 0.971698 0.131652
vt 1.000000 0.259579
vt 0.971698 0.263305
vt 1.000000 0.135378
vt 0.943396 0.658262
vt 0.971698 0.786189
vt 0.943396 0.789915
vt 0.971698 0.661988
vt 0.971698 0.394957
vt 1.000000 0.267031
vt 1.000000 0.391231
vt 0.971698 0.263305
vt 0.971698 0.526610
vt 0.943396 0.654536
vt 0.943396 0.530336
vt 0.971698 0.658262
vt 0.971698 0.789915
vt 0.943396 0.917841
vt 0.943396 0.793641
vt 0.971698 0.921567
vt 0.943396 0.394957
vt 0.971698 0.267031
vt 0.971698 0.391231
vt 0.943396 0.263305
vt 0.998527 0.525977
vt 0.998527 0.656997
vt 0.971698 0.535729
vt 0.998527 0.525977
vt 0.971698 0.516226
vt 0.998527 0.394957
vt 0.943396 0.263305
vt 0.971698 0.135378
vt 0.971698 0.259579
vt 0.943396 0.131652
vt 1.000000 0.000000
vt 0.971698 0.127926
vt 0.971698 0.003726
vt 1.000000 0.131653
vt 0.971698 0.526610
vt 0.943396 0.398684
vt 0.971698 0.394957
vt 0.943396 0.522884
s 0
usemtl __auto_
f 3/1/1 4/2/1 5/3/1
f 4/2/1 3/1/1 6/4/1
f 4/2/1 6/4/1 7/5/1
f 7/5/1 6/4/1 8/6/1
f 7/5/1 8/6/1 9/7/1
f 9/7/1 8/6/1 10/8/1
f 9/7/1 10/8/1 11/9/1
f 11/9/1 10/8/1 12/10/1
f 11/9/1 12/10/1 13/11/1
f 13/11/1 12/10/1 14/12/1
f 13/11/1 14/12/1 15/13/1
f 15/13/1 14/12/1 16/14/1
f 15/13/1 16/14/1 17/15/1
f 17/15/1 16/14/1 18/16/1
f 17/15/1 18/16/1 19/17/1
f 19/17/1 18/16/1 20/18/1
f 19/17/1 20/18/1 21/19/1
f 21/19/1 20/18/1 22/20/1
f 21/19/1 22/20/1 23/21/1
f 23/21/1 22/20/1 24/22/1
f 23/21/1 24/22/1 25/23/1
f 25/23/1 24/22/1 26/24/1
f 27/25/2 28/26/2 29/27/2
f 28/26/2 27/25/2 30/28/2
f 31/29/3 32/30/3 33/31/3
f 32/30/3 31/29/3 34/32/3
f 35/33/4 36/34/4 37/35/4
f 36/34/4 35/33/4 38/36/4
f 39/37/5 40/38/5 41/39/5
f 40/38/5 39/37/5 42/40/5
f 43/41/6 44/42/6 45/43/6
f 44/42/6 43/41/6 46/44/6
f 47/45/7 48/46/7 49/47/7
f 48/46/7 47/45/7 50/48/7
f 51/49/8 52/50/8 53/51/8
f 52/50/8 51/49/8 54/52/8
f 55/53/9 56/54/9 57/55/9
f 58/56/10 59/57/10 60/58/10
f 61/59/11 62/60/11 63/61/11
f 62/60/11 61/59/11 64/62/11
f 65/63/12 66/64/12 67/65/12
f 66/64/12 65/63/12 68/66/12
f 69/67/13 70/68/13 71/69/13
f 70/68/13 69/67/13 72/70/13
