{
    "asset" : {
        "generator" : "Khronos glTF Blender I/O v3.3.32",
        "version" : "2.0"
    },
    "extensionsUsed" : [
        "KHR_materials_specular",
        "KHR_materials_ior"
    ],
    "scene" : 0,
    "scenes" : [
        {
            "name" : "Scene",
            "nodes" : [
                5
            ]
        }
    ],
    "nodes" : [
        {
            "mesh" : 0,
            "name" : "group_1",
            "rotation" : [
                0,
                -1,
                0,
                4.371139183945161e-08
            ],
            "scale" : [
                -1,
                -0.5899999737739563,
                -1
            ],
            "translation" : [
                -3.814697265625e-06,
                16.25122833251953,
                7.62939453125e-06
            ]
        },
        {
            "mesh" : 1,
            "name" : "group_1.001",
            "rotation" : [
                0,
                -1,
                0,
                4.371139183945161e-08
            ],
            "scale" : [
                -1,
                -0.5899999737739563,
                -1
            ],
            "translation" : [
                -3.814697265625e-06,
                16.25122833251953,
                7.62939453125e-06
            ]
        },
        {
            "mesh" : 2,
            "name" : "group_2",
            "scale" : [
                1,
                1.1799999475479126,
                1
            ],
            "translation" : [
                -3.814697265625e-06,
                15.53216552734375,
                7.62939453125e-06
            ]
        },
        {
            "mesh" : 3,
            "name" : "group_2.001",
            "scale" : [
                1,
                1.1799999475479126,
                1
            ],
            "translation" : [
                -3.814697265625e-06,
                15.53216552734375,
                7.62939453125e-06
            ]
        },
        {
            "children" : [
                0,
                1,
                2,
                3
            ],
            "name" : "group_0",
            "translation" : [
                -31.15801239013672,
                -15.95779037475586,
                49.52705764770508
            ]
        },
        {
            "children" : [
                4
            ],
            "name" : "SketchUp",
            "scale" : [
                0.02539999783039093,
                0.02539999783039093,
                0.02539999783039093
            ]
        }
    ],
    "materials" : [
        {
            "doubleSided" : true,
            "extensions" : {
                "KHR_materials_specular" : {
                    "specularColorFactor" : [
                        0,
                        0,
                        0
                    ]
                },
                "KHR_materials_ior" : {
                    "ior" : 1.4500000476837158
                }
            },
            "name" : "human_heart",
            "pbrMetallicRoughness" : {
                "baseColorTexture" : {
                    "index" : 0
                },
                "metallicFactor" : 0,
                "roughnessFactor" : 0.5
            }
        },
        {
            "doubleSided" : true,
            "extensions" : {
                "KHR_materials_specular" : {
                    "specularColorFactor" : [
                        0,
                        0,
                        0
                    ]
                },
                "KHR_materials_ior" : {
                    "ior" : 1.4500000476837158
                }
            },
            "name" : "material",
            "pbrMetallicRoughness" : {
                "metallicFactor" : 0,
                "roughnessFactor" : 0.5
            }
        }
    ],
    "meshes" : [
        {
            "name" : "ID4",
            "primitives" : [
                {
                    "attributes" : {
                        "POSITION" : 0,
                        "NORMAL" : 1,
                        "TEXCOORD_0" : 2
                    },
                    "indices" : 3,
                    "material" : 0
                }
            ]
        },
        {
            "name" : "ID17",
            "primitives" : [
                {
                    "attributes" : {
                        "POSITION" : 4,
                        "NORMAL" : 5
                    },
                    "indices" : 6,
                    "material" : 1
                }
            ]
        },
        {
            "name" : "ID26",
            "primitives" : [
                {
                    "attributes" : {
                        "POSITION" : 7,
                        "NORMAL" : 8,
                        "TEXCOORD_0" : 9
                    },
                    "indices" : 10,
                    "material" : 0
                }
            ]
        },
        {
            "name" : "ID34",
            "primitives" : [
                {
                    "attributes" : {
                        "POSITION" : 11,
                        "NORMAL" : 12
                    },
                    "indices" : 6,
                    "material" : 1
                }
            ]
        }
    ],
    "textures" : [
        {
            "sampler" : 0,
            "source" : 0
        }
    ],
    "images" : [
        {
            "bufferView" : 4,
            "mimeType" : "image/jpeg",
            "name" : "human_heart"
        }
    ],
    "accessors" : [
        {
            "bufferView" : 0,
            "componentType" : 5126,
            "count" : 2195,
            "max" : [
                71.624755859375,
                27.54445457458496,
                0
            ],
            "min" : [
                0,
                0.28125,
                -109.31124114990234
            ],
            "type" : "VEC3"
        },
        {
            "bufferView" : 1,
            "componentType" : 5126,
            "count" : 2195,
            "type" : "VEC3"
        },
        {
            "bufferView" : 2,
            "componentType" : 5126,
            "count" : 2195,
            "type" : "VEC2"
        },
        {
            "bufferView" : 3,
            "componentType" : 5123,
            "count" : 2244,
            "type" : "SCALAR"
        },
        {
            "bufferView" : 5,
            "componentType" : 5126,
            "count" : 3,
            "max" : [
                64.14212799072266,
                5.902143478393555,
                -102.01258850097656
            ],
            "min" : [
                61.49995040893555,
                0.28125,
                -108.67864990234375
            ],
            "type" : "VEC3"
        },
        {
            "bufferView" : 6,
            "componentType" : 5126,
            "count" : 3,
            "type" : "VEC3"
        },
        {
            "bufferView" : 7,
            "componentType" : 5123,
            "count" : 3,
            "type" : "SCALAR"
        },
        {
            "bufferView" : 8,
            "componentType" : 5126,
            "count" : 2195,
            "max" : [
                71.624755859375,
                27.54445457458496,
                0
            ],
            "min" : [
                0,
                0.28125,
                -109.31124114990234
            ],
            "type" : "VEC3"
        },
        {
            "bufferView" : 9,
            "componentType" : 5126,
            "count" : 2195,
            "type" : "VEC3"
        },
        {
            "bufferView" : 10,
            "componentType" : 5126,
            "count" : 2195,
            "type" : "VEC2"
        },
        {
            "bufferView" : 11,
            "componentType" : 5123,
            "count" : 2244,
            "type" : "SCALAR"
        },
        {
            "bufferView" : 12,
            "componentType" : 5126,
            "count" : 3,
            "max" : [
                64.14212799072266,
                5.902143478393555,
                -102.01258850097656
            ],
            "min" : [
                61.49995040893555,
                0.28125,
                -108.67864990234375
            ],
            "type" : "VEC3"
        },
        {
            "bufferView" : 13,
            "componentType" : 5126,
            "count" : 3,
            "type" : "VEC3"
        }
    ],
    "bufferViews" : [
        {
            "buffer" : 0,
            "byteLength" : 26340,
            "byteOffset" : 0,
            "target" : 34962
        },
        {
            "buffer" : 0,
            "byteLength" : 26340,
            "byteOffset" : 26340,
            "target" : 34962
        },
        {
            "buffer" : 0,
            "byteLength" : 17560,
            "byteOffset" : 52680,
            "target" : 34962
        },
        {
            "buffer" : 0,
            "byteLength" : 4488,
            "byteOffset" : 70240,
            "target" : 34963
        },
        {
            "buffer" : 0,
            "byteLength" : 267641,
            "byteOffset" : 74728
        },
        {
            "buffer" : 0,
            "byteLength" : 36,
            "byteOffset" : 342372,
            "target" : 34962
        },
        {
            "buffer" : 0,
            "byteLength" : 36,
            "byteOffset" : 342408,
            "target" : 34962
        },
        {
            "buffer" : 0,
            "byteLength" : 6,
            "byteOffset" : 342444,
            "target" : 34963
        },
        {
            "buffer" : 0,
            "byteLength" : 26340,
            "byteOffset" : 342452,
            "target" : 34962
        },
        {
            "buffer" : 0,
            "byteLength" : 26340,
            "byteOffset" : 368792,
            "target" : 34962
        },
        {
            "buffer" : 0,
            "byteLength" : 17560,
            "byteOffset" : 395132,
            "target" : 34962
        },
        {
            "buffer" : 0,
            "byteLength" : 4488,
            "byteOffset" : 412692,
            "target" : 34963
        },
        {
            "buffer" : 0,
            "byteLength" : 36,
            "byteOffset" : 417180,
            "target" : 34962
        },
        {
            "buffer" : 0,
            "byteLength" : 36,
            "byteOffset" : 417216,
            "target" : 34962
        }
    ],
    "samplers" : [
        {
            "magFilter" : 9729,
            "minFilter" : 9987
        }
    ],
    "buffers" : [
        {
            "byteLength" : 417252,
            "uri" : "data:application/octet-stream;base64,"
        }
    ]
}
