{
	"asset":{
		"generator":"Khronos glTF Blender I/O v3.5.30",
		"version":"2.0"
	},
	"extensionsUsed":[
		"KHR_materials_ior"
	],
	"scene":0,
	"scenes":[
		{
			"name":"Scene",
			"nodes":[
				1
			]
		}
	],
	"nodes":[
		{
			"mesh":0,
			"name":"group_0",
			"rotation":[
				0,
				-0.5,
				0,
				0.8660253882408142
			],
			"translation":[
				-16.306793212890625,
				-6.312500476837158,
				-86.26775360107422
			]
		},
		{
			"children":[
				0
			],
			"name":"SketchUp",
			"scale":[
				0.02539999783039093,
				0.02539999783039093,
				0.02539999783039093
			],
			"translation":[
				-2.212364673614502,
				0,
				1.6846466064453125
			]
		}
	],
	"materials":[
		{
			"doubleSided":true,
			"extensions":{
				"KHR_materials_specular":{
					"specularColorFactor":[
						0,
						0,
						0
					]
				},
				"KHR_materials_ior":{
					"ior":1.4500000476837158
				}
			},
			"name":"DALL\u00b7E_2022-11-28_16.54.48_-_windows_xp_virus_error_message._g",
			"pbrMetallicRoughness":{
				"baseColorTexture":{
					"index":0
				},
				"metallicFactor":0,
				"roughnessFactor":0.5
			}
		}
	],
	"meshes":[
		{
			"name":"ID3",
			"primitives":[
				{
					"attributes":{
						"POSITION":0,
						"TEXCOORD_0":1,
						"NORMAL":2
					},
					"indices":3,
					"material":0
				}
			]
		}
	],
	"textures":[
		{
			"sampler":0,
			"source":0
		}
	],
	"images":[
		{
			"bufferView":4,
			"mimeType":"image/png",
			"name":"DALL_E_2022-11-28_16.54.48_-_windows_xp_virus_error_message"
		}
	],
	"accessors":[
		{
			"bufferView":0,
			"componentType":5126,
			"count":396,
			"max":[
				119.33799743652344,
				179.60113525390625,
				0
			],
			"min":[
				0,
				0,
				-148.2470245361328
			],
			"type":"VEC3"
		},
		{
			"bufferView":1,
			"componentType":5126,
			"count":396,
			"type":"VEC2"
		},
		{
			"bufferView":2,
			"componentType":5126,
			"count":396,
			"type":"VEC3"
		},
		{
			"bufferView":3,
			"componentType":5123,
			"count":420,
			"type":"SCALAR"
		}
	],
	"bufferViews":[
		{
			"buffer":0,
			"byteLength":4752,
			"byteOffset":0,
			"target":34962
		},
		{
			"buffer":0,
			"byteLength":3168,
			"byteOffset":4752,
			"target":34962
		},
		{
			"buffer":0,
			"byteLength":4752,
			"byteOffset":7920,
			"target":34962
		},
		{
			"buffer":0,
			"byteLength":840,
			"byteOffset":12672,
			"target":34963
		},
		{
			"buffer":0,
			"byteLength":771845,
			"byteOffset":13512
		}
	],
	"samplers":[
		{
			"magFilter":9729,
			"minFilter":9987
		}
	],
	"buffers":[
		{
			"byteLength":785360,
			"uri":"data:application/octet-stream;base64,"
		}
	]
}
