{
	"asset":{
		"generator":"Khronos glTF Blender I/O v3.5.30",
		"version":"2.0"
	},
	"extensionsUsed":[
		"KHR_materials_ior"
	],
	"scene":0,
	"scenes":[
		{
			"name":"Scene",
			"nodes":[
				2
			]
		}
	],
	"nodes":[
		{
			"mesh":0,
			"name":"group_1",
			"rotation":[
				0,
				0.4091269075870514,
				0,
				0.9124774932861328
			],
			"translation":[
				-11.40262222290039,
				0,
				103.88725280761719
			]
		},
		{
			"mesh":1,
			"name":"group_1.001",
			"rotation":[
				0,
				0.4091269075870514,
				0,
				0.9124774932861328
			],
			"translation":[
				-11.40262222290039,
				-4.75,
				103.88725280761719
			]
		},
		{
			"children":[
				0,
				1
			],
			"name":"SketchUp",
			"scale":[
				0.02539999783039093,
				0.02539999783039093,
				0.02539999783039093
			],
			"translation":[
				0,
				0,
				-1.3020548820495605
			]
		}
	],
	"materials":[
		{
			"doubleSided":true,
			"extensions":{
				"KHR_materials_specular":{
					"specularColorFactor":[
						0,
						0,
						0
					]
				},
				"KHR_materials_ior":{
					"ior":1.4500000476837158
				}
			},
			"name":"DALL\u00b7E_2022-11-28_16.54.42_-_windows_xp_virus_error_message._g",
			"pbrMetallicRoughness":{
				"baseColorTexture":{
					"index":0
				},
				"metallicFactor":0,
				"roughnessFactor":0.5
			}
		}
	],
	"meshes":[
		{
			"name":"ID17",
			"primitives":[
				{
					"attributes":{
						"POSITION":0,
						"TEXCOORD_0":1,
						"NORMAL":2
					},
					"indices":3,
					"material":0
				}
			]
		},
		{
			"name":"ID30",
			"primitives":[
				{
					"attributes":{
						"POSITION":4,
						"TEXCOORD_0":5,
						"NORMAL":6
					},
					"indices":7,
					"material":0
				}
			]
		}
	],
	"textures":[
		{
			"sampler":0,
			"source":0
		}
	],
	"images":[
		{
			"bufferView":4,
			"mimeType":"image/png",
			"name":"DALL_E_2022-11-28_16.54.42_-_windows_xp_virus_error_message"
		}
	],
	"accessors":[
		{
			"bufferView":0,
			"componentType":5126,
			"count":376,
			"max":[
				78.80387878417969,
				98.77532196044922,
				-10.942022323608398
			],
			"min":[
				0,
				1.4210854715202004e-14,
				-104.66848754882812
			],
			"type":"VEC3"
		},
		{
			"bufferView":1,
			"componentType":5126,
			"count":376,
			"type":"VEC2"
		},
		{
			"bufferView":2,
			"componentType":5126,
			"count":376,
			"type":"VEC3"
		},
		{
			"bufferView":3,
			"componentType":5123,
			"count":384,
			"type":"SCALAR"
		},
		{
			"bufferView":5,
			"componentType":5126,
			"count":115,
			"max":[
				74.84506225585938,
				4.75,
				0
			],
			"min":[
				6.845058441162109,
				0,
				-60.206790924072266
			],
			"type":"VEC3"
		},
		{
			"bufferView":6,
			"componentType":5126,
			"count":115,
			"type":"VEC2"
		},
		{
			"bufferView":7,
			"componentType":5126,
			"count":115,
			"type":"VEC3"
		},
		{
			"bufferView":8,
			"componentType":5123,
			"count":144,
			"type":"SCALAR"
		}
	],
	"bufferViews":[
		{
			"buffer":0,
			"byteLength":4512,
			"byteOffset":0,
			"target":34962
		},
		{
			"buffer":0,
			"byteLength":3008,
			"byteOffset":4512,
			"target":34962
		},
		{
			"buffer":0,
			"byteLength":4512,
			"byteOffset":7520,
			"target":34962
		},
		{
			"buffer":0,
			"byteLength":768,
			"byteOffset":12032,
			"target":34963
		},
		{
			"buffer":0,
			"byteLength":712350,
			"byteOffset":12800
		},
		{
			"buffer":0,
			"byteLength":1380,
			"byteOffset":725152,
			"target":34962
		},
		{
			"buffer":0,
			"byteLength":920,
			"byteOffset":726532,
			"target":34962
		},
		{
			"buffer":0,
			"byteLength":1380,
			"byteOffset":727452,
			"target":34962
		},
		{
			"buffer":0,
			"byteLength":288,
			"byteOffset":728832,
			"target":34963
		}
	],
	"samplers":[
		{
			"magFilter":9729,
			"minFilter":9987
		}
	],
	"buffers":[
		{
			"byteLength":729120,
			"uri":"data:application/octet-stream;base64,"
		}
	]
}
